<svg xmlns="http://www.w3.org/2000/svg" viewBox="0 0 800 352" fill="none">
  <rect width="800" height="352" fill="#181614"/>
  <rect width="800" height="352" fill="url(#glow)" opacity="0.9"/>
  <defs>
    <radialGradient id="glow" cx="50%" cy="40%" r="55%">
      <stop offset="0%" stop-color="#c97b63" stop-opacity="0.14"/>
      <stop offset="100%" stop-color="#181614" stop-opacity="0"/>
    </radialGradient>
  </defs>
  <rect x="120" y="72" width="560" height="176" rx="14" fill="#100f0d" stroke="rgba(243,237,228,0.06)"/>
  <path d="M152 176c32-28 64 36 96 4s64-40 96-4 64 36 96 4 64-40 96-4 64 36 96 4 32-20 64-8" stroke="#d9b86c" stroke-width="2.5" stroke-linecap="round" fill="none" opacity="0.85"/>
  <path d="M152 204c28-18 56 24 84 6s56-28 84-6 56 24 84 6 56-28 84-6 56 24 84 6 28-14 56-4" stroke="#c97b63" stroke-width="2" stroke-linecap="round" fill="none" opacity="0.65"/>
  <circle cx="248" cy="176" r="4" fill="#d9b86c"/>
  <circle cx="400" cy="176" r="4" fill="#c97b63"/>
  <circle cx="552" cy="176" r="4" fill="#d9b86c"/>
  <text x="40" y="318" fill="#9b9488" font-family="ui-monospace, monospace" font-size="18">EEG · clinical data · pipelines</text>
</svg>
