<svg xmlns="http://www.w3.org/2000/svg" viewBox="0 0 800 352" fill="none">
  <rect width="800" height="352" fill="#181614"/>
  <rect width="800" height="352" fill="url(#glow)" opacity="0.9"/>
  <defs>
    <radialGradient id="glow" cx="50%" cy="40%" r="55%">
      <stop offset="0%" stop-color="#d9b86c" stop-opacity="0.14"/>
      <stop offset="100%" stop-color="#181614" stop-opacity="0"/>
    </radialGradient>
  </defs>
  <rect x="120" y="72" width="560" height="176" rx="14" fill="#100f0d" stroke="rgba(243,237,228,0.06)"/>
  <path d="M168 196h80" stroke="#9b9488" stroke-width="1.5" stroke-dasharray="4 6" opacity="0.5"/>
  <path d="M552 196h80" stroke="#9b9488" stroke-width="1.5" stroke-dasharray="4 6" opacity="0.5"/>
  <rect x="168" y="132" width="56" height="40" rx="6" stroke="#9b9488" stroke-opacity="0.4" fill="#201e1b"/>
  <rect x="240" y="148" width="56" height="40" rx="6" stroke="#9b9488" stroke-opacity="0.35" fill="#201e1b"/>
  <rect x="312" y="124" width="56" height="40" rx="6" stroke="#d9b86c" stroke-opacity="0.45" fill="#201e1b"/>
  <path d="M400 176c32-28 64 36 96 4s64-40 96-4 64 36 96 4" stroke="#d9b86c" stroke-width="2.5" stroke-linecap="round" fill="none" opacity="0.85"/>
  <path d="M400 204c28-18 56 24 84 6s56-28 84-6 56 24 84 6" stroke="#c97b63" stroke-width="2" stroke-linecap="round" fill="none" opacity="0.65"/>
  <rect x="552" y="148" width="120" height="72" rx="14" stroke="#d9b86c" stroke-width="2" fill="#201e1b"/>
  <path d="M576 180c12 8 24 8 36 0M576 200c16 6 32 6 48 0" stroke="#f3ede4" stroke-width="2" stroke-linecap="round" opacity="0.6"/>
  <text x="40" y="318" fill="#9b9488" font-family="ui-monospace, monospace" font-size="18">RAG · retrieval · streaming</text>
</svg>
